Coordinates
version=1
nRows=19
nColumns=24
inDegrees=yes

Units are S.I. units (second, meters, Newtons, ...)
Angles are in degrees.

endheader
time	pelvis_tilt	pelvis_list	pelvis_rotation	pelvis_tx	pelvis_ty	pelvis_tz	hip_flexion_r	hip_adduction_r	hip_rotation_r	knee_angle_r	ankle_angle_r	subtalar_angle_r	mtp_angle_r	hip_flexion_l	hip_adduction_l	hip_rotation_l	knee_angle_l	ankle_angle_l	subtalar_angle_l	mtp_angle_l	lumbar_extension	lumbar_bending	lumbar_rotation
      1.35400000	      8.50139078	      1.15971761	     -4.43991711	      0.29343780	      1.03686851	      0.25297730	      3.19601585	     -7.22003977	     -7.81365894	    -61.01302090	      4.46577896	     -5.92153125	      4.75903764	     -0.90237463	      3.38043595	     -7.99673697	     -8.80284172	      1.18206067	    -13.43601822	     -9.85955915	    -19.24715555	     -3.08163638	      4.08357038
      1.35816667	      8.50728308	      1.02174429	     -4.23690881	      0.29830435	      1.03757449	      0.25231115	      3.74762582	     -7.01237514	     -7.98344933	    -60.77709447	      4.56894343	     -6.05294651	      4.61633308	     -1.32679664	      3.28010321	     -7.83682574	     -8.60008693	      1.36527930	    -13.24687240	     -9.89539192	    -19.31336485	     -2.85280132	      3.84189312
      1.36233333	      8.49687748	      0.92405552	     -4.09581909	      0.30322989	      1.03820093	      0.25173025	      4.32524447	     -6.85448936	     -8.10753302	    -60.51609117	      4.75797400	     -6.16292832	      4.55043030	     -1.75518580	      3.22607746	     -7.74170309	     -8.35124195	      1.47835444	    -13.14712152	     -9.91236864	    -19.33575132	     -2.67033318	      3.74292605
      1.36650000	      8.50283826	      0.78580320	     -3.88427643	      0.30810256	      1.03886513	      0.25106470	      4.84329462	     -6.65003525	     -8.30478021	    -60.14936132	      4.81199045	     -6.31579793	      4.41383849	     -2.18586984	      3.11975595	     -7.57865033	     -8.13363416	      1.66132096	    -12.95290552	     -9.94825108	    -19.39962377	     -2.43781664	      3.49923228
      1.37066667	      8.54880798	      0.65917449	     -3.68491930	      0.31300837	      1.03955292	      0.25040193	      5.29815425	     -6.46898821	     -8.50685051	    -59.71997113	      4.90186450	     -6.44997697	      4.25707511	     -2.67381896	      3.02980554	     -7.43649064	     -7.88649351	      1.81360055	    -12.79601005	     -9.99171369	    -19.49450523	     -2.21247075	      3.27682454
      1.37483333	      8.59304921	      0.53627362	     -3.48722013	      0.31789815	      1.04020173	      0.24975182	      5.74369240	     -6.29184598	     -8.71292699	    -59.23743982	      4.98752359	     -6.59443921	      4.10600543	     -3.16152345	      2.94091204	     -7.29556725	     -7.63127107	      1.95574340	    -12.64759992	    -10.03498691	    -19.58690787	     -1.99143296	      3.07890552
      1.37900000	      8.61835102	      0.41356323	     -3.28117119	      0.32280513	      1.04080077	      0.24909785	      6.18994968	     -6.11606267	     -8.93646333	    -58.69495408	      5.06130276	     -6.74812148	      3.95952599	     -3.62748639	      2.84643083	     -7.15400180	     -7.37750131	      2.10138255	    -12.49767260	    -10.07701886	    -19.65253470	     -1.76915675	      2.87206863
      1.38316667	      8.65438164	      0.29452040	     -3.06607541	      0.32771516	      1.04138560	      0.24843582	      6.60376921	     -5.94799874	     -9.17826816	    -58.09227424	      5.12722776	     -6.89729717	      3.80948473	     -4.10524079	      2.75326592	     -7.00715981	     -7.12014517	      2.24168920	    -12.35227576	    -10.12021676	    -19.73107295	     -1.54699343	      2.64590651
      1.38733333	      8.71541504	      0.17106451	     -2.84053872	      0.33261311	      1.04197452	      0.24776715	      6.96828352	     -5.77877896	     -9.43861169	    -57.42740955	      5.19368709	     -7.04681693	      3.66265752	     -4.60997353	      2.65206592	     -6.85471644	     -6.85890400	      2.37514334	    -12.20753635	    -10.16216022	    -19.83678953	     -1.32227687	      2.41585735
      1.39150000	      8.77855503	      0.05548252	     -2.60673344	      0.33749910	      1.04253013	      0.24708520	      7.31469166	     -5.62136607	     -9.71384977	    -56.71210887	      5.24159610	     -7.19989788	      3.50582783	     -5.11713369	      2.55658575	     -6.68106505	     -6.59087009	      2.51066976	    -12.06611066	    -10.20634347	    -19.95248215	     -1.09538461	      2.16471995
      1.39566667	      8.87856529	     -0.05457314	     -2.34843875	      0.34238506	      1.04311142	      0.24636336	      7.59077075	     -5.47913711	    -10.02715931	    -55.93301234	      5.32737743	     -7.33694840	      3.28261046	     -5.66348927	      2.46372831	     -6.49122688	     -6.31645071	      2.62746802	    -11.92939346	    -10.27011209	    -20.10562171	     -0.87760101	      1.86293771
      1.39983333	      8.92257407	     -0.16819077	     -2.11026899	      0.34728348	      1.04357079	      0.24569636	      7.92126106	     -5.32484237	    -10.32077491	    -55.10947710	      5.33632213	     -7.49293535	      3.12032172	     -6.14320813	      2.36041674	     -6.32452981	     -6.05882504	      2.76965257	    -11.81218712	    -10.31345848	    -20.18921238	     -0.65096431	      1.64531786
      1.40400000	      9.03818900	     -0.27533384	     -1.84154618	      0.35219680	      1.04411103	      0.24494164	      8.13619867	     -5.19608232	    -10.66475149	    -54.21881295	      5.41686490	     -7.56712216	      2.80425952	     -6.71211765	      2.26597370	     -6.12175249	     -5.76589328	      2.85870185	    -11.72750341	    -10.39991495	    -20.35382399	     -0.41280277	      1.29315154
      1.40816667	      9.00060087	     -0.36195387	     -1.63148495	      0.35709483	      1.04435951	      0.24441070	      8.53918380	     -5.05393355	    -10.92891333	    -53.32741104	      5.47985787	     -7.75640106	      2.71979888	     -7.09070664	      2.17654871	     -5.99772409	     -5.52484825	      2.96053000	    -11.61841727	    -10.41924956	    -20.32968555	     -0.24187265	      1.18582628
      1.41233333	      9.17037367	     -0.46242247	     -1.31303313	      0.36196749	      1.04490442	      0.24359142	      8.64528023	     -4.94392787	    -11.34475320	    -52.32004562	      5.48508027	     -7.87632729	      2.48464423	     -7.70328283	      2.07483663	     -5.74656106	     -5.25306182	      3.11960386	    -11.47728590	    -10.47253349	    -20.57130334	     -0.00453795	      0.76048441
      1.41650000	      9.24539373	     -0.55016430	     -1.02535175	      0.36687524	      1.04526847	      0.24286088	      8.85103858	     -4.83439312	    -11.72808821	    -51.28730766	      5.51728296	     -8.00909561	      2.23971532	     -8.20751688	      1.98062424	     -5.52980576	     -4.99207809	      3.23255076	    -11.39578338	    -10.52584742	    -20.67843981	      0.21768863	      0.45643071
      1.42066667	      9.27314481	     -0.63225184	     -0.76417700	      0.37175969	      1.04551552	      0.24222628	      9.10529692	     -4.71768028	    -12.07777179	    -50.21773000	      5.48326596	     -8.16090845	      2.07457118	     -8.65066666	      1.88573127	     -5.33211628	     -4.75365725	      3.38721333	    -11.30520070	    -10.55662213	    -20.73767974	      0.41054981	      0.23877172
      1.42483333	      9.35171755	     -0.71308590	     -0.48752350	      0.37666920	      1.04580404	      0.24156692	      9.27058445	     -4.60749206	    -12.45682734	    -49.08714364	      5.49777094	     -8.27343775	      1.89821570	     -9.15349880	      1.78756435	     -5.13287721	     -4.50146366	      3.50635367	    -11.21747870	    -10.58644849	    -20.85036825	      0.61230029	     -0.05899950
      1.42900000	      9.44751959	     -0.76617412	     -0.19372340	      0.38156317	      1.04606828	      0.24088139	      9.39841059	     -4.53501222	    -12.86718221	    -47.92486157	      5.56562297	     -8.38367938	      1.66255065	     -9.67158402	      1.71431592	     -4.90654214	     -4.24498206	      3.59199087	    -11.15605610	    -10.62337108	    -20.98349686	      0.79023762	     -0.39106915
